<?xml version="1.0" standalone="no"?>
<!DOCTYPE svg PUBLIC "-//W3C//DTD SVG 20010904//EN"
 "http://www.w3.org/TR/2001/REC-SVG-20010904/DTD/svg10.dtd">
<svg version="1.0" xmlns="http://www.w3.org/2000/svg"
 width="1832.000000pt" height="604.000000pt" viewBox="0 0 1832.000000 604.000000"
 preserveAspectRatio="xMidYMid meet">

<g transform="translate(0.000000,604.000000) scale(0.100000,-0.100000)"
fill="#000000" stroke="none">
<path d="M0 3020 l0 -3020 9160 0 9160 0 0 3020 0 3020 -9160 0 -9160 0 0
-3020z m12975 1925 c17 -18 102 -113 190 -211 88 -99 201 -222 250 -274 50
-53 128 -138 175 -190 47 -52 139 -153 205 -225 95 -102 200 -221 262 -294 2
-3 18 13 36 34 36 44 157 178 411 456 93 101 192 209 219 239 28 30 102 111
167 180 64 69 156 168 203 221 l87 97 182 4 c101 2 184 4 186 3 1 -1 -24 -28
-56 -61 -32 -32 -96 -102 -142 -154 -47 -52 -129 -142 -183 -200 -146 -158
-499 -543 -591 -645 -76 -84 -117 -130 -227 -250 -25 -27 -91 -99 -147 -158
-56 -60 -111 -125 -121 -145 l-18 -36 -13 24 c-7 13 -87 104 -179 203 -91 99
-226 248 -300 331 -73 83 -197 219 -275 301 -130 139 -418 453 -596 651 -41
46 -87 93 -102 104 -16 12 -28 25 -28 29 0 4 84 5 188 3 l187 -3 30 -34z
m3656 35 l669 0 0 -125 0 -125 -792 -2 c-436 -2 -803 -2 -816 0 -23 3 -22 4 9
40 17 20 70 79 117 130 79 86 88 93 115 88 16 -3 330 -6 698 -6z m-4421 -10
c126 -20 267 -115 323 -217 54 -100 57 -131 57 -581 0 -457 -3 -483 -63 -595
-39 -74 -102 -130 -197 -176 l-75 -36 -1110 0 -1110 0 -65 31 c-97 46 -171
119 -220 217 l-41 81 3 485 3 486 33 63 c38 72 122 158 194 197 98 54 92 53
1188 54 642 1 1039 -3 1080 -9z m-5509 -122 c79 -67 315 -268 524 -447 209
-179 443 -379 520 -444 77 -66 160 -137 184 -158 24 -22 47 -39 51 -39 8 0 4
-3 365 305 154 132 359 306 455 387 96 81 274 230 395 332 121 102 225 184
230 183 7 -3 11 -282 13 -805 l2 -802 -138 0 -139 0 -6 88 c-4 48 -4 282 0
520 3 237 3 432 -1 432 -4 0 -22 -13 -39 -29 -18 -16 -124 -107 -237 -203
-113 -95 -354 -299 -535 -453 -182 -154 -338 -286 -347 -293 -15 -12 -26 -6
-90 50 -41 35 -125 106 -188 159 -185 156 -326 275 -495 419 -87 74 -208 177
-269 229 l-111 93 -3 -506 -2 -506 -159 0 -158 0 -6 44 c-15 107 -6 1089 14
1544 1 12 7 22 13 22 7 0 77 -55 157 -122z m-5291 40 c83 -42 120 -130 100
-238 -11 -63 -11 -65 12 -83 13 -11 283 -277 600 -592 l577 -574 64 71 64 71
-428 429 -427 429 -105 -3 -106 -3 -40 40 c-42 40 -81 123 -81 170 0 48 40
133 79 168 100 90 226 70 318 -51 44 -58 51 -103 25 -157 l-21 -43 435 -433
c239 -239 440 -437 447 -441 16 -8 403 375 393 390 -3 5 -12 35 -21 67 -14 55
-14 60 6 104 66 150 220 195 340 99 110 -88 112 -251 4 -336 -51 -40 -111 -56
-170 -45 l-54 9 -445 -447 -446 -447 0 -405 c0 -222 -3 -419 -6 -436 -5 -25
-89 -114 -383 -406 -352 -349 -442 -435 -461 -435 -16 0 -60 62 -60 83 0 15
118 140 385 407 l385 385 0 80 0 80 -332 -332 c-183 -182 -343 -336 -356 -342
-12 -7 -32 -9 -42 -6 -21 7 -40 58 -32 87 2 10 175 188 383 397 l379 378 0 77
0 77 -330 -328 c-182 -180 -341 -334 -354 -342 -30 -18 -51 -10 -70 28 -11 21
-13 37 -7 53 5 13 178 193 385 400 l376 377 0 80 0 80 49 58 c26 32 73 81 103
110 l55 51 -594 594 -594 593 -57 -2 c-105 -4 -140 5 -190 50 -83 77 -102 162
-57 254 25 50 71 94 117 113 45 18 141 11 188 -12z m2716 -453 c94 -28 148
-107 149 -216 0 -55 -4 -72 -28 -107 -15 -23 -46 -54 -69 -69 -42 -28 -79 -32
-200 -21 -23 3 -102 -72 -607 -576 l-581 -580 0 -397 c0 -252 4 -408 10 -425
6 -15 123 -140 260 -278 137 -138 254 -264 259 -279 10 -24 8 -33 -11 -57 -13
-16 -28 -31 -35 -34 -21 -9 -98 61 -365 331 l-258 260 0 462 0 462 610 610
c537 537 610 613 603 632 -4 12 -8 49 -8 83 0 49 5 68 27 101 45 69 102 103
184 112 6 0 33 -6 60 -14z m-3202 -9 c40 -17 71 -48 97 -98 14 -28 19 -58 19
-126 l0 -88 340 -338 c269 -268 341 -344 345 -369 9 -46 1 -944 -7 -953 -12
-11 -81 -13 -100 -3 -17 9 -18 41 -18 462 l0 451 -332 334 c-271 271 -337 332
-353 327 -123 -38 -233 10 -280 122 -42 99 8 224 110 277 37 20 134 21 179 2z
m542 -76 c106 -52 158 -152 132 -257 -9 -36 -7 -47 7 -70 10 -16 139 -147 286
-293 l268 -265 1 -355 c1 -396 2 -391 -64 -393 -29 -1 -42 5 -57 23 -17 23
-19 47 -19 338 0 252 -3 318 -14 340 -8 15 -126 138 -263 274 l-248 247 -73
-10 c-90 -13 -125 -3 -177 49 -67 67 -90 130 -71 200 22 86 98 161 184 181 55
13 62 13 108 -9z m15694 -185 l0 -125 -1049 0 c-578 0 -1052 4 -1055 8 -2 4
27 41 66 82 39 41 86 94 105 118 l35 42 949 0 949 0 0 -125z m-12565 -196 c75
-21 155 -126 155 -205 0 -46 -31 -121 -62 -151 -65 -61 -129 -78 -224 -60
l-41 8 -572 -572 -572 -572 194 -196 c107 -108 200 -206 206 -219 16 -31 5
-59 -28 -77 -25 -12 -31 -12 -61 6 -73 45 -480 467 -480 498 0 4 274 280 608
615 l609 608 -5 74 c-6 94 14 150 70 198 59 51 127 66 203 45z m-537 -95 c82
-34 132 -110 132 -199 0 -68 -17 -111 -63 -159 -48 -49 -78 -58 -179 -54 l-86
3 -409 -404 c-224 -223 -413 -414 -420 -425 -8 -14 -12 -78 -13 -198 l0 -176
39 -49 c21 -26 140 -148 265 -270 124 -122 226 -228 226 -235 0 -22 -50 -68
-73 -68 -16 0 -101 77 -289 263 -147 144 -276 278 -287 297 -19 32 -21 51 -21
253 l0 217 452 449 c406 403 450 450 444 472 -26 88 -10 182 42 235 60 60 163
81 240 48z m13242 -389 l0 -125 -1435 0 c-1022 0 -1435 3 -1435 11 0 6 48 62
107 125 l107 114 1328 0 1328 0 0 -125z m-6092 -707 l-3 -123 -1552 -3 -1553
-2 0 -675 0 -675 -130 0 -130 0 0 675 0 675 -650 0 -650 0 0 125 0 125 2335 0
2336 0 -3 -122z m3060 0 l-3 -123 -1050 -6 c-1080 -5 -1074 -5 -1177 -46 -194
-76 -358 -307 -358 -506 0 -183 136 -390 315 -480 131 -66 51 -61 1218 -65
l1058 -3 -3 -122 -3 -122 -1065 0 c-983 0 -1070 1 -1133 18 -379 97 -628 388
-644 754 -9 189 41 339 164 493 151 191 340 295 578 319 44 5 536 9 1093 10
l1013 1 -3 -122z m442 -81 c0 -112 3 -265 7 -340 l6 -137 1158 0 1159 0 2 338
3 337 128 3 127 3 0 -801 0 -800 -130 0 -130 0 0 335 0 335 -1158 0 -1159 0
-6 -122 c-4 -66 -7 -217 -7 -335 l0 -214 -127 3 -128 3 -3 175 c-2 96 0 455 3
798 l7 622 124 0 124 0 0 -203z m-3635 -602 l0 -120 -1357 -3 -1358 -2 0 125
0 125 1358 -2 1357 -3 0 -120z m133 -672 l3 -123 -1426 0 -1425 0 0 125 0 125
1423 -2 1422 -3 3 -122z"/>
<path d="M10074 4699 c-52 -24 -68 -38 -87 -76 -15 -28 -17 -81 -17 -450 0
-414 0 -419 23 -463 17 -35 34 -51 72 -70 l50 -25 1015 -3 c924 -2 1019 -1
1059 14 57 22 107 67 121 110 8 23 12 166 13 437 2 390 1 403 -19 442 -11 22
-40 54 -63 70 l-43 30 -1043 1 c-992 2 -1045 1 -1081 -17z"/>
<path d="M1254 4765 c-57 -39 -25 -155 42 -155 31 0 84 50 84 79 0 69 -73 114
-126 76z"/>
<path d="M1799 4661 c-16 -16 -29 -37 -29 -46 0 -22 72 -95 93 -95 24 0 67 58
67 91 0 38 -40 79 -75 79 -16 0 -38 -12 -56 -29z"/>
<path d="M3483 4208 c-34 -9 -63 -41 -63 -69 0 -26 58 -79 85 -79 30 0 85 46
85 70 0 59 -48 94 -107 78z"/>
<path d="M4014 4302 c-18 -11 -34 -49 -34 -77 0 -30 49 -85 76 -85 9 0 33 12
52 26 31 24 34 30 29 66 -7 53 -31 78 -76 78 -20 0 -41 -4 -47 -8z"/>
<path d="M783 4299 c-29 -18 -33 -26 -33 -64 0 -47 34 -95 69 -95 28 0 89 38
96 60 13 41 -43 120 -85 120 -8 0 -30 -10 -47 -21z"/>
<path d="M1330 4200 c-29 -29 -27 -90 3 -118 31 -29 69 -28 106 4 39 32 43 82
9 114 -29 27 -91 27 -118 0z"/>
<path d="M4478 3823 c-19 -22 -38 -58 -38 -72 0 -5 12 -24 27 -41 24 -29 30
-32 72 -27 53 6 71 26 71 77 0 55 -23 80 -74 80 -28 0 -48 -6 -58 -17z"/>
<path d="M3919 3731 c-38 -39 -38 -78 -1 -114 38 -36 75 -35 114 3 25 26 29
35 23 63 -17 77 -83 100 -136 48z"/>
</g>
</svg>
